<svg width="39" height="61" viewBox="0 0 39 61" fill="none" xmlns="http://www.w3.org/2000/svg">
<path d="M5.98661 60.0252C6.34349 60.1575 6.73992 59.9734 6.87265 59.6157C7.00405 59.2583 6.82064 58.8617 6.46308 58.7296L3.58975 57.6729C17.0237 53.9247 26.7814 47.0434 32.5936 37.1883C42.2962 20.7331 37.4595 1.49609 37.4094 1.30378C37.3133 0.934497 36.9371 0.713868 36.5683 0.809116L36.5629 0.810544C36.197 0.908588 35.9782 1.28367 36.0736 1.65028C36.1223 1.83726 40.8197 20.5201 31.4041 36.4869C25.8066 45.9781 16.3913 52.6498 3.41089 56.2936L5.23465 54.1877C5.48387 53.8995 5.45277 53.4635 5.16521 53.2141C4.9855 53.0579 4.74757 53.0124 4.53429 53.0695C4.40566 53.104 4.2857 53.1761 4.19178 53.2842L0.197836 57.896L5.98661 60.0252Z" fill="#BFC8EB"/>
</svg>
