<svg width="153" height="167" viewBox="0 0 153 167" fill="none" xmlns="http://www.w3.org/2000/svg">
<rect width="153" height="153" rx="76.5" fill="#EFF2FD"/>
<path fill-rule="evenodd" clip-rule="evenodd" d="M144.518 41.8542C133.434 35.0441 123.019 26.5855 113.429 17.7032C112.148 16.5185 110.087 15.1926 110.639 12.8067C112.417 11.7753 115.092 14.0265 116.655 15.0908C121.557 18.4367 124.935 21.5168 129.853 25.3731C134.166 28.7568 138.606 32.0854 142.903 35.9795C144.478 37.4069 146.176 39.0045 146.571 40.223C146.692 40.5988 146.865 42.1024 146.865 42.3428C146.866 44.3961 145.802 46.0795 145.104 47.8923C141.115 58.2607 136.757 67.6026 132.053 77.4285C131.718 78.1278 131.284 79.0665 130.879 79.8754C130.433 80.7721 129.796 81.581 129.707 82.1612C129.57 83.0351 129.847 84.3861 129.853 85.5896C129.864 87.9498 130.448 123.308 128.644 123.727C125.091 124.55 126.774 94.2407 126.774 92.0974C126.774 86.4697 127.431 78.8043 128.973 74.9822C133.495 63.7687 139.855 52.9304 144.518 41.8542Z" fill="#FF5000"/>
<g opacity="0.21">
<g opacity="0.21">
<path opacity="0.21" fill-rule="evenodd" clip-rule="evenodd" d="M144.518 41.8542C133.434 35.0441 123.019 26.5855 113.429 17.7032C112.148 16.5185 110.087 15.1926 110.639 12.8067C112.417 11.7753 115.092 14.0265 116.655 15.0908C121.557 18.4367 124.935 21.5168 129.853 25.3731C134.166 28.7568 138.606 32.0854 142.903 35.9795C144.478 37.4069 146.176 39.0045 146.571 40.223C146.692 40.5988 146.865 42.1024 146.865 42.3428C146.866 44.3961 145.802 46.0795 145.104 47.8923C141.115 58.2607 136.757 67.6026 132.053 77.4285C131.718 78.1278 131.284 79.0665 130.879 79.8754C130.433 80.7721 129.796 81.581 129.707 82.1612C129.57 83.0351 129.847 84.3861 129.853 85.5896C129.864 87.9498 130.448 123.308 128.644 123.727C125.091 124.55 126.774 94.2407 126.774 92.0974C126.774 86.4697 127.431 78.8043 128.973 74.9822C133.495 63.7687 139.855 52.9304 144.518 41.8542Z" fill="black"/>
</g>
</g>
<path fill-rule="evenodd" clip-rule="evenodd" d="M149.286 42.4868C149.286 44.9973 147.455 47.0362 145.197 47.0362C142.942 47.0362 141.111 44.9973 141.111 42.4868C141.111 39.9762 142.942 37.938 145.197 37.938C147.455 37.9383 149.286 39.9766 149.286 42.4868Z" fill="#FF5000"/>
<path fill-rule="evenodd" clip-rule="evenodd" d="M147.144 42.4868C147.144 43.6858 146.273 44.6536 145.196 44.6536C144.122 44.6536 143.25 43.6858 143.25 42.4868C143.25 41.2904 144.122 40.3201 145.196 40.3201C146.273 40.3204 147.144 41.2904 147.144 42.4868Z" fill="white"/>
<path fill-rule="evenodd" clip-rule="evenodd" d="M119.076 0.0344579C122.425 -0.231046 125.439 1.07429 127.453 2.69145C129.405 4.25904 131.096 6.39775 131.358 9.12878C131.809 13.8889 129.603 17.4566 129.243 21.9327C128.442 31.8604 133.043 37.8639 138.267 43.2014C142.216 47.2325 146.195 51.143 145.831 58.5931C145.722 60.8022 145.12 62.9155 144.448 64.6814C141.657 72.0193 136.407 77.06 133.552 84.48C133.063 85.7502 131.964 110.841 131.731 113.338C131.653 114.171 131.61 115.599 131.569 116.838C131.534 117.98 131.58 119.329 130.268 119.357C128.73 119.386 128.998 117.841 129.049 116.838C129.157 114.708 129.76 90.0651 130.137 88.1416C131.153 82.9438 133.895 78.3245 136.397 74.2643C138.365 71.0789 140.532 67.8221 141.927 64.3321C143.389 60.6816 143.877 55.7247 142.093 51.8775C140.563 48.5848 137.642 45.9014 135.097 43.2014C130.157 37.9627 125.589 31.2246 126.802 21.2327C127.054 19.1609 127.574 17.0737 128.104 15.0064C128.6 13.0654 129.224 10.6794 128.674 8.42947C128.072 5.98318 125.972 4.06855 123.631 2.97164C121.433 1.94256 118.287 1.85515 115.906 3.11189C115.224 3.47068 114.645 4.05877 114.034 4.58097C113.337 5.17982 112.322 5.71637 111.677 5.0712C111.011 4.40777 111.866 3.68432 112.407 3.18169C114.154 1.56355 115.982 0.278761 119.076 0.0344579Z" fill="#4D3D87"/>
<path fill-rule="evenodd" clip-rule="evenodd" d="M150.529 126.213C150.318 124.645 150.217 122.426 149.304 121.347C147.647 119.385 144.654 120.321 142.304 119.204C140.981 118.573 140.366 115.924 138.629 115.116C137.666 114.666 136.655 114.809 135.655 114.725C134.432 114.619 133.134 114.569 131.796 114.542C131.796 114.537 131.796 114.534 131.798 114.529C131.586 114.53 131.369 114.529 131.153 114.529C130.019 114.515 128.858 114.516 127.687 114.521C126.518 114.516 125.357 114.515 124.223 114.529C124.008 114.529 123.792 114.53 123.58 114.529C123.582 114.533 123.582 114.537 123.582 114.542C122.241 114.569 120.944 114.619 119.723 114.725C118.724 114.809 117.709 114.666 116.747 115.116C115.01 115.924 114.396 118.573 113.072 119.204C110.722 120.32 107.728 119.385 106.071 121.347C105.158 122.426 105.058 124.645 104.848 126.213C112.815 126.416 142.562 126.416 150.529 126.213Z" fill="#FF5000"/>
<path fill-rule="evenodd" clip-rule="evenodd" d="M106.046 45.3617C96.1644 39.8732 87.3111 33.3136 79.1852 26.0132C76.4969 23.5982 73.8689 21.1017 71.5215 18.3485C76.9372 13.756 83.1906 9.61817 92.162 8.78643C102.212 7.85684 108.64 13.5293 110.752 21.0029C111.937 25.204 111.585 30.4889 110.524 34.5866C109.458 38.7026 107.953 42.144 106.046 45.3617Z" fill="#FF5000"/>
<path opacity="0.21" d="M110.754 21.0032C109.181 15.4381 105.21 10.8703 99.1348 9.28711C101.996 11.5093 103.964 14.6409 104.964 18.1802C106.15 22.3796 105.798 27.6662 104.737 31.7623C103.717 35.6956 102.292 39.0111 100.505 42.1065C102.316 43.2285 104.163 44.3153 106.047 45.3617C107.954 42.144 109.459 38.7026 110.525 34.587C111.586 30.4889 111.939 25.2043 110.754 21.0032Z" fill="black"/>
<path fill-rule="evenodd" clip-rule="evenodd" d="M106.047 45.3617C105.608 46.0431 103.909 44.8144 103.088 44.3751C97.3094 41.2931 92.2342 37.1099 87.2291 33.2213C82.8949 29.8542 78.7267 26.2967 74.6329 22.5975C73.9946 22.0212 73.3041 21.3509 72.6606 20.7012C72.0562 20.0919 71.0679 18.9102 71.5219 18.3488C71.8288 17.9698 73.2917 18.9425 74.2533 19.5632C76.5498 21.0456 79.1286 22.5065 81.2343 24.0409C84.2867 26.2618 87.1064 28.6037 89.8081 30.7933C94.1495 34.3091 98.2354 37.5995 102.404 41.1877C103.057 41.7507 103.797 42.3332 104.454 42.9347C105.048 43.4778 106.489 44.6758 106.047 45.3617Z" fill="#8F7ECE"/>
<path d="M89.8078 30.7929C88.0207 29.3451 86.1775 27.8284 84.2528 26.3247C83.0642 26.9174 81.9301 27.5472 81.0915 28.2416C80.7901 28.4915 80.5262 28.7491 80.3116 29.016C77.5803 32.4388 78.1364 37.4266 81.5582 40.1613C84.9801 42.8949 89.9712 42.3381 92.7058 38.9163C92.9283 38.6351 93.1295 38.3063 93.3112 37.9384C93.7825 36.9847 94.1224 35.7788 94.4159 34.5289C92.9025 33.2963 91.3724 32.0608 89.8078 30.7929Z" fill="#EFAD1B"/>
<path fill-rule="evenodd" clip-rule="evenodd" d="M89.7408 12.0957C88.9341 10.9359 92.5527 10.3912 92.1323 11.7151C91.9131 12.4076 90.3915 12.3205 89.7408 12.0957Z" fill="white"/>
<path fill-rule="evenodd" clip-rule="evenodd" d="M87.5011 11.067C87.7923 11.1374 88.3485 11.4372 88.1629 12.0106C87.9231 12.7585 86.3816 13.098 85.7958 13.3505C85.0841 13.6542 83.8822 14.5502 83.1868 14.0224C82.1955 13.2699 84.193 12.2285 84.894 11.8997C85.2681 11.7252 85.6497 11.5895 85.9739 11.4564C86.5271 11.2291 86.942 10.9323 87.5011 11.067Z" fill="white"/>
<path fill-rule="evenodd" clip-rule="evenodd" d="M102.554 38.022C102.462 37.1593 103.086 35.8373 103.779 34.5767C104.074 34.0356 104.57 33.1696 105.082 33.3803C105.698 33.6324 105.293 34.7058 105.148 35.0881C104.684 36.3018 103.88 37.6747 103.239 38.2784C103.044 38.3423 102.708 38.2031 102.554 38.022Z" fill="white"/>
<path fill-rule="evenodd" clip-rule="evenodd" d="M103.505 32.6451C102.135 32.3695 103.232 29.5161 104.261 30.0494C104.707 30.282 104.693 31.8597 104.207 32.4409C104.032 32.6457 103.743 32.6927 103.505 32.6451Z" fill="white"/>
<path fill-rule="evenodd" clip-rule="evenodd" d="M106.378 27.4228C105.885 27.3758 105.67 26.6892 105.723 25.9716C105.765 25.3946 106.108 24.3108 106.719 24.5668C106.993 24.6797 107.239 25.2051 107.209 25.8023C107.178 26.5026 107.018 27.4815 106.378 27.4228Z" fill="white"/>
<path fill-rule="evenodd" clip-rule="evenodd" d="M114.925 7.26897C114.529 4.91107 110.785 3.09071 108.248 3.32327C105.849 3.54408 104.301 4.89965 102.708 6.43527C101.737 7.37041 100.676 8.38806 99.7484 9.3943C99.6896 9.45758 99.6388 9.5127 99.5879 9.56196C100.541 9.74592 101.181 10.3591 101.502 11.1227C102.378 11.8602 103.186 12.7076 103.961 13.4688C105.33 14.8048 106.433 16.3636 107.682 17.8063C107.891 18.0499 108.051 18.3043 108.168 18.562C108.764 18.4312 109.397 17.4338 109.918 16.7547C110.573 15.8995 111.08 15.2292 111.511 14.631C112.605 13.1055 113.619 11.8419 114.394 10.1543C114.697 9.49052 115.113 8.39035 114.925 7.26897ZM103.467 10.381C103.064 10.7913 102.509 11.3879 101.797 11.1396C101.523 10.5812 102.075 9.99381 102.481 9.47095C103.339 8.36066 105.174 6.30285 106.349 5.82663C106.58 5.73498 106.813 5.76466 107.032 5.97928C106.994 6.62934 106.476 7.18286 106.046 7.64798C105.18 8.58605 104.402 9.42562 103.467 10.381ZM104.454 13.3394C104.086 12.6205 104.87 11.9104 105.363 11.2916C106.663 9.66209 108.82 7.61047 110.297 6.43527C110.51 6.26371 110.947 6.35145 111.131 6.58629C111.038 7.44999 110.37 8.10397 109.841 8.71163C108.774 9.94097 107.564 10.9019 106.349 12.0506C105.811 12.5608 105.314 13.431 104.454 13.3394ZM109.765 13.415C109.446 13.7595 109.05 14.1401 108.704 14.477C108.339 14.8332 107.95 15.253 107.412 15.3117C106.949 14.6369 107.815 13.8074 108.322 13.188C109.14 12.1958 109.875 11.2476 110.904 10.532C111.197 10.4664 111.172 10.7186 111.359 10.759C111.091 11.8132 110.416 12.7098 109.765 13.415Z" fill="#FF5000"/>
<path opacity="0.21" fill-rule="evenodd" clip-rule="evenodd" d="M114.925 7.26897C114.529 4.91107 110.785 3.09071 108.248 3.32327C105.849 3.54408 104.301 4.89965 102.708 6.43527C101.737 7.37041 100.676 8.38806 99.7484 9.3943C99.6896 9.45758 99.6388 9.5127 99.5879 9.56196C100.541 9.74592 101.181 10.3591 101.502 11.1227C102.378 11.8602 103.186 12.7076 103.961 13.4688C105.33 14.8048 106.433 16.3636 107.682 17.8063C107.891 18.0499 108.051 18.3043 108.168 18.562C108.764 18.4312 109.397 17.4338 109.918 16.7547C110.573 15.8995 111.08 15.2292 111.511 14.631C112.605 13.1055 113.619 11.8419 114.394 10.1543C114.697 9.49052 115.113 8.39035 114.925 7.26897ZM103.467 10.381C103.064 10.7913 102.509 11.3879 101.797 11.1396C101.523 10.5812 102.075 9.99381 102.481 9.47095C103.339 8.36066 105.174 6.30285 106.349 5.82663C106.58 5.73498 106.813 5.76466 107.032 5.97928C106.994 6.62934 106.476 7.18286 106.046 7.64798C105.18 8.58605 104.402 9.42562 103.467 10.381ZM104.454 13.3394C104.086 12.6205 104.87 11.9104 105.363 11.2916C106.663 9.66209 108.82 7.61047 110.297 6.43527C110.51 6.26371 110.947 6.35145 111.131 6.58629C111.038 7.44999 110.37 8.10397 109.841 8.71163C108.774 9.94097 107.564 10.9019 106.349 12.0506C105.811 12.5608 105.314 13.431 104.454 13.3394ZM109.765 13.415C109.446 13.7595 109.05 14.1401 108.704 14.477C108.339 14.8332 107.95 15.253 107.412 15.3117C106.949 14.6369 107.815 13.8074 108.322 13.188C109.14 12.1958 109.875 11.2476 110.904 10.532C111.197 10.4664 111.172 10.7186 111.359 10.759C111.091 11.8132 110.416 12.7098 109.765 13.415Z" fill="black"/>
<path fill-rule="evenodd" clip-rule="evenodd" d="M23.1024 55.7188C23.3578 55.7289 23.6419 55.436 23.728 56.346C23.8085 57.1885 23.345 58.302 23.1908 59.1188C22.9129 60.5986 22.5078 62.6144 22.4751 62.7872C21.9412 65.6814 21.57 68.0996 21.2223 70.3039C20.339 75.898 19.7549 80.8281 19.1668 85.7823C18.2241 93.6992 17.9029 101.77 17.5552 110.477C17.4394 113.354 17.549 116.55 16.6608 118.35C16.2325 119.217 15.224 120.341 14.3336 120.587C13.3704 120.855 11.7118 120.584 10.8442 120.409C10.0284 120.244 8.83725 119.958 7.98137 119.781C6.17405 119.413 3.42084 118.974 2.7013 117.188C2.26815 116.113 2.53137 114.126 2.79067 112.625C3.51347 108.444 4.97211 104.024 6.01227 100.456C7.54006 95.2133 9.13732 90.185 10.7545 84.7086C12.3628 79.2625 13.8381 73.7499 15.496 68.873C16.2652 66.6116 17.1664 63.9875 18.2705 61.3557C19.1593 59.2359 20.7174 56.5296 22.8343 55.7184C22.8943 55.6953 23.0368 55.7171 23.1024 55.7188Z" fill="#8F7ECE"/>
<path fill-rule="evenodd" clip-rule="evenodd" d="M49.8548 52.5883C54.5076 52.3658 60.0649 52.3955 64.8864 52.5883C69.731 52.7824 74.5033 52.6995 79.4715 53.0345C83.9577 53.3375 88.5642 53.8114 93.25 54.2883C97.6305 54.7332 102.554 55.3024 105.418 57.0611C107.478 58.3256 108.344 60.0351 108.998 62.6983C110.643 69.4083 110.958 80.5865 111.414 87.7512C111.596 90.6352 111.724 93.6367 111.86 96.5191C111.998 99.4148 112.308 102.317 112.308 105.198C112.306 111.013 113.124 117.712 111.143 121.93C110.567 123.158 109.811 124.048 108.191 124.614C105.461 125.568 101.081 124.929 97.6331 124.614C86.9555 123.641 75.1439 123.521 63.9914 124.255C56.4647 124.753 49.4862 124.769 41.8903 125.42C38.6061 125.7 34.6917 126.096 30.9746 126.135C24.7291 126.2 18.8185 125.778 17.1962 121.303C16.4639 119.284 16.2 116.346 16.0327 113.519C15.5402 105.193 15.9293 95.3559 16.3021 87.4821C16.7852 77.243 16.9943 67.6193 19.5227 59.387C20.042 57.6981 20.7169 55.912 22.2062 55.0036C23.6061 54.1516 25.812 53.7357 28.2019 53.4813C32.7053 53.0045 37.7182 52.9151 42.4285 52.7664C44.8621 52.69 47.3234 52.7073 49.8548 52.5883Z" fill="white"/>
<path fill-rule="evenodd" clip-rule="evenodd" d="M49.8548 52.5883C54.5076 52.3658 60.0649 52.3955 64.8864 52.5883C69.731 52.7824 74.5033 52.6995 79.4715 53.0345C83.9577 53.3375 88.5642 53.8114 93.25 54.2883C97.6305 54.7332 102.554 55.3024 105.418 57.0611C107.478 58.3256 108.344 60.0351 108.998 62.6983C110.643 69.4083 110.958 80.5865 111.414 87.7512C111.596 90.6352 111.724 93.6367 111.86 96.5191C111.998 99.4148 112.308 102.317 112.308 105.198C112.306 111.013 113.124 117.712 111.143 121.93C110.567 123.158 109.811 124.048 108.191 124.614C105.461 125.568 101.081 124.929 97.6331 124.614C86.9555 123.641 75.1439 123.521 63.9914 124.255C56.4647 124.753 49.4862 124.769 41.8903 125.42C38.6061 125.7 34.6917 126.096 30.9746 126.135C24.7291 126.2 18.8185 125.778 17.1962 121.303C16.4639 119.284 16.2 116.346 16.0327 113.519C15.5402 105.193 15.9293 95.3559 16.3021 87.4821C16.7852 77.243 16.9943 67.6193 19.5227 59.387C20.042 57.6981 20.7169 55.912 22.2062 55.0036C23.6061 54.1516 25.812 53.7357 28.2019 53.4813C32.7053 53.0045 37.7182 52.9151 42.4285 52.7664C44.8621 52.69 47.3234 52.7073 49.8548 52.5883Z" fill="#8F7ECE"/>
<path opacity="0.57" fill-rule="evenodd" clip-rule="evenodd" d="M49.8548 52.5883C54.5076 52.3658 60.0649 52.3955 64.8864 52.5883C69.731 52.7824 74.5033 52.6995 79.4715 53.0345C83.9577 53.3375 88.5642 53.8114 93.25 54.2883C97.6305 54.7332 102.554 55.3024 105.418 57.0611C107.478 58.3256 108.344 60.0351 108.998 62.6983C110.643 69.4083 110.958 80.5865 111.414 87.7512C111.596 90.6352 111.724 93.6367 111.86 96.5191C111.998 99.4148 112.308 102.317 112.308 105.198C112.306 111.013 113.124 117.712 111.143 121.93C110.567 123.158 109.811 124.048 108.191 124.614C105.461 125.568 101.081 124.929 97.6331 124.614C86.9555 123.641 75.1439 123.521 63.9914 124.255C56.4647 124.753 49.4862 124.769 41.8903 125.42C38.6061 125.7 34.6917 126.096 30.9746 126.135C24.7291 126.2 18.8185 125.778 17.1962 121.303C16.4639 119.284 16.2 116.346 16.0327 113.519C15.5402 105.193 15.9293 95.3559 16.3021 87.4821C16.7852 77.243 16.9943 67.6193 19.5227 59.387C20.042 57.6981 20.7169 55.912 22.2062 55.0036C23.6061 54.1516 25.812 53.7357 28.2019 53.4813C32.7053 53.0045 37.7182 52.9151 42.4285 52.7664C44.8621 52.69 47.3234 52.7073 49.8548 52.5883Z" fill="white"/>
<g opacity="0.78">
<path opacity="0.78" fill-rule="evenodd" clip-rule="evenodd" d="M91.9083 64.13C92.1174 66.6343 92.1956 69.2691 92.1754 72.0044C89.7487 72.1408 87.2447 72.2024 84.7498 72.2732C84.8578 69.4511 84.467 66.6493 84.6598 64.0409C87.0682 64.0775 89.6391 63.9529 91.9083 64.13Z" fill="white"/>
<path opacity="0.78" fill-rule="evenodd" clip-rule="evenodd" d="M82.1546 64.13C82.1653 66.8943 82.1066 69.7258 82.2446 72.3616C79.2304 72.45 76.1233 72.4448 73.209 72.631C73.2677 69.8863 73.3326 67.1481 73.2967 64.3094C76.2897 64.2866 79.1039 64.0915 82.1546 64.13Z" fill="#B1BC00"/>
<path opacity="0.78" fill-rule="evenodd" clip-rule="evenodd" d="M94.2344 64.3984C99.3367 64.3945 102.614 66.9935 103.272 71.735C100.424 71.782 97.6406 71.8916 94.7722 71.9151C94.6966 69.306 94.5804 66.7374 94.2344 64.3984Z" fill="white"/>
<path opacity="0.78" fill-rule="evenodd" clip-rule="evenodd" d="M70.8807 64.3984C70.7907 67.1722 70.7427 69.9864 70.6129 72.7201C66.9223 72.8173 63.3305 73.0123 59.6973 73.1663C59.7175 70.4108 59.9148 67.4687 59.6973 64.7562C63.3765 64.5912 67.1477 64.5129 70.8807 64.3984Z" fill="white"/>
<path opacity="0.78" fill-rule="evenodd" clip-rule="evenodd" d="M57.2824 64.8454C57.4161 67.4561 57.0811 70.3691 57.1923 73.2571C54.2692 73.4655 51.2152 73.5421 48.2461 73.7042C48.2461 70.8117 48.2461 67.9173 48.2461 65.0248C51.1966 64.9645 54.5402 64.818 57.2824 64.8454Z" fill="white"/>
<path opacity="0.78" fill-rule="evenodd" clip-rule="evenodd" d="M34.6452 65.1143C34.4916 68.0929 34.5569 71.2903 34.3775 74.2415C30.8982 74.2242 27.474 74.2572 24.1758 74.4193C24.5861 71.7068 24.9573 68.937 26.4136 67.1721C28.0869 65.1439 31.0375 65.2239 34.6452 65.1143Z" fill="white"/>
<path opacity="0.78" fill-rule="evenodd" clip-rule="evenodd" d="M45.8282 65.1143C45.8031 68.043 45.5856 70.7766 45.6488 73.7927C42.7893 73.9463 39.8896 74.0589 36.9688 74.1505C37.1309 71.1233 36.9312 67.9996 37.0598 65.1143C40.296 65.1439 42.5394 65.1188 45.8282 65.1143Z" fill="white"/>
<path opacity="0.78" fill-rule="evenodd" clip-rule="evenodd" d="M104.791 81.3996C101.407 81.4146 97.9345 81.3425 94.6809 81.4879C94.615 79.0668 94.8251 76.9189 94.7709 74.5095C97.5359 74.1908 100.812 74.5437 103.181 74.3311C103.781 74.2769 103.786 74.1657 103.986 74.8667C104.491 76.6391 104.51 79.6829 104.791 81.3996Z" fill="white"/>
<path opacity="0.78" fill-rule="evenodd" clip-rule="evenodd" d="M92.1752 74.5996C92.1181 76.8687 92.291 79.3669 92.0858 81.488C89.7116 81.6188 87.2044 81.6172 84.7496 81.668C84.8083 79.4005 84.6305 76.8978 84.839 74.777C87.386 74.8204 89.6601 74.5878 92.1752 74.5996Z" fill="white"/>
<path opacity="0.78" fill-rule="evenodd" clip-rule="evenodd" d="M82.0646 74.8662C82.3934 75.1503 82.244 75.8747 82.244 76.4768C82.244 78.0813 82.244 79.9816 82.244 81.6675C79.0397 81.6245 76.0797 81.8257 72.8496 81.7559C72.9403 79.55 73.0257 77.3402 73.118 75.1353C76.0507 74.9947 79.1539 75.0293 82.0646 74.8662Z" fill="white"/>
<path opacity="0.78" fill-rule="evenodd" clip-rule="evenodd" d="M70.523 75.2244C70.5755 77.5438 70.3123 79.5478 70.3436 81.846C66.7424 82.0032 63.0227 82.041 59.517 82.2945C59.4694 80.0393 59.6752 78.0379 59.607 75.7622C63.1372 75.4739 66.9234 75.4419 70.523 75.2244Z" fill="white"/>
<path opacity="0.78" fill-rule="evenodd" clip-rule="evenodd" d="M57.1013 75.8508C57.0081 77.9957 57.0779 80.3018 56.922 82.3831C54.0435 82.5474 51.1321 82.676 48.2441 82.8302C48.2441 80.6227 48.2441 78.4162 48.2441 76.2103C51.2772 76.1711 54.0921 75.9141 57.1013 75.8508Z" fill="#FF5000"/>
<path opacity="0.78" fill-rule="evenodd" clip-rule="evenodd" d="M45.6505 76.3884C45.6505 78.5646 45.6505 80.7415 45.6505 82.919C42.5936 83.0241 39.5302 83.1219 36.6133 83.3669C36.6625 81.0899 36.7424 78.8432 36.8817 76.6569C39.9256 76.6885 42.6442 76.3946 45.6505 76.3884Z" fill="white"/>
<path opacity="0.78" fill-rule="evenodd" clip-rule="evenodd" d="M23.9072 76.7456C27.3956 76.6993 30.8856 76.9908 34.2873 76.7456C34.2419 79.0258 34.1402 81.2519 34.0178 83.4572C30.5559 83.7517 26.8209 83.7742 23.2812 83.9937C23.6433 81.7298 23.3432 78.805 23.9072 76.7456Z" fill="white"/>
<path opacity="0.78" fill-rule="evenodd" clip-rule="evenodd" d="M104.97 83.9051C105.341 86.2464 105.355 88.9487 105.506 91.5095C101.866 91.7156 98.0999 91.7968 94.5025 92.0467C94.4506 89.3114 94.6597 86.8354 94.5919 84.0838C97.9472 83.9191 101.442 83.894 104.97 83.9051Z" fill="white"/>
<path opacity="0.78" fill-rule="evenodd" clip-rule="evenodd" d="M92.0851 84.0836C92.0476 86.7585 91.9488 89.3754 91.9957 92.1358C89.5886 92.2946 87.1494 92.4186 84.6585 92.4936C84.602 89.634 84.7345 86.9614 84.7485 84.172C87.2913 84.2405 89.584 84.0578 92.0851 84.0836Z" fill="#FF5000"/>
<path opacity="0.78" fill-rule="evenodd" clip-rule="evenodd" d="M82.155 84.1724C82.097 86.9774 82.2741 90.018 82.0657 92.6734C78.7863 92.7024 75.7151 92.9418 72.4922 93.0296C72.5235 90.0784 72.6331 87.2051 72.7616 84.3524C75.7875 84.1864 79.1523 84.3619 82.155 84.1724Z" fill="white"/>
<path opacity="0.78" fill-rule="evenodd" clip-rule="evenodd" d="M70.1643 84.4407C70.1564 87.385 69.9222 90.1037 69.9849 93.1201C66.6145 93.3566 62.9947 93.3458 59.6071 93.5666C59.398 90.8219 59.5757 87.6929 59.517 84.7988C63.055 84.6693 66.5069 84.4518 70.1643 84.4407Z" fill="white"/>
<path opacity="0.78" fill-rule="evenodd" clip-rule="evenodd" d="M56.8354 84.8872C56.9981 87.707 56.912 90.7766 57.0141 93.6573C54.0714 93.7255 51.2259 93.8938 48.334 94.0151C48.1279 91.2994 48.3034 88.1995 48.2456 85.3357C51.1574 85.2356 54.0476 85.1149 56.8354 84.8872Z" fill="white"/>
<path opacity="0.78" fill-rule="evenodd" clip-rule="evenodd" d="M45.3809 85.425C45.8626 85.4463 45.6385 86.1103 45.6496 86.3201C45.7641 88.7478 45.6636 91.6347 45.739 94.1038C42.6068 94.2235 39.512 94.3794 36.2539 94.3732C36.1825 91.4377 36.4131 88.8058 36.4333 85.9626C39.2182 85.5839 42.4639 85.67 45.3809 85.425Z" fill="white"/>
<path opacity="0.78" fill-rule="evenodd" clip-rule="evenodd" d="M33.9272 86.0518C33.7775 88.7932 33.7511 91.66 33.6601 94.4618C30.1365 94.6076 26.33 94.4703 22.9222 94.7302C22.9049 91.8791 22.9881 89.1292 23.1022 86.4096C26.789 86.3678 30.3896 86.2409 33.9272 86.0518Z" fill="white"/>
<path opacity="0.78" fill-rule="evenodd" clip-rule="evenodd" d="M105.597 94.1035C105.814 97.1379 105.777 100.426 105.775 103.676C102.078 103.676 98.3786 103.676 94.6817 103.676C94.5924 100.665 94.4577 97.6976 94.5033 94.5513C98.2223 94.4238 101.802 94.156 105.597 94.1035Z" fill="white"/>
<path opacity="0.78" fill-rule="evenodd" clip-rule="evenodd" d="M91.9087 94.73C92.0819 97.6274 91.9305 100.85 92.1758 103.677C89.7602 103.677 87.3436 103.677 84.9296 103.677C84.8183 100.836 84.7042 97.9969 84.6602 95.0888C87.0239 94.9179 89.4555 94.8128 91.9087 94.73Z" fill="white"/>
<path opacity="0.78" fill-rule="evenodd" clip-rule="evenodd" d="M82.1539 95.178C82.1359 98.1191 82.2517 100.925 82.4233 103.676C79.0921 103.657 75.9592 103.834 72.581 103.768C72.4799 101.181 72.3987 98.1067 72.581 95.5351C75.848 95.4944 78.9316 95.2651 82.1539 95.178Z" fill="white"/>
<path opacity="0.78" fill-rule="evenodd" clip-rule="evenodd" d="M69.8975 95.7151C69.8388 98.4879 70.0501 100.989 69.9852 103.768C66.6345 103.718 63.3166 103.637 59.8762 103.676C59.8511 101.077 59.7046 98.5988 59.6074 96.0729C63.0613 95.9767 66.4355 95.8028 69.8975 95.7151Z" fill="#B1BC00"/>
<path opacity="0.78" fill-rule="evenodd" clip-rule="evenodd" d="M57.101 96.1616C57.1394 98.7182 57.2865 101.168 57.3697 103.677C54.5177 103.837 51.4719 103.804 48.6903 104.037C48.6417 101.491 48.385 99.1513 48.4215 96.5194C51.3603 96.4464 54.214 96.2875 57.101 96.1616Z" fill="white"/>
<path opacity="0.78" fill-rule="evenodd" clip-rule="evenodd" d="M45.7384 96.6101C46.0587 98.9429 45.9608 101.694 46.1855 104.123C42.9147 104.284 39.5365 104.336 36.2533 104.483C36.1805 102.021 36.1359 99.531 36.1655 96.9663C39.3353 96.8286 42.6642 96.845 45.7384 96.6101Z" fill="white"/>
<path opacity="0.78" fill-rule="evenodd" clip-rule="evenodd" d="M33.6605 97.0563C33.6605 99.5629 33.6605 102.067 33.6605 104.571C29.9261 104.656 26.2929 104.839 22.7448 105.109C22.5374 102.544 22.7151 99.5949 22.9226 97.1453C26.3317 96.947 30.1039 97.1098 33.6605 97.0563Z" fill="white"/>
<path opacity="0.78" fill-rule="evenodd" clip-rule="evenodd" d="M70.0763 106.274C70.0942 109.327 70.1875 112.305 70.3451 115.219C67.1267 115.342 63.7978 115.354 60.5929 115.489C60.3391 112.52 60.1427 109.497 60.0566 106.361C60.1215 106.278 60.2187 106.225 60.3238 106.183C63.4501 106.336 66.8178 106.251 70.0763 106.274Z" fill="white"/>
<path opacity="0.78" fill-rule="evenodd" clip-rule="evenodd" d="M92.2657 106.274C92.3401 109.003 92.3133 111.833 92.4435 114.505C90.1694 114.526 87.9104 114.565 85.7342 114.682C85.5088 111.957 85.2517 109.26 85.1076 106.452C85.1037 106.299 85.1735 106.219 85.286 106.183C87.5845 106.242 90.1163 106.065 92.2657 106.274Z" fill="white"/>
<path opacity="0.78" fill-rule="evenodd" clip-rule="evenodd" d="M57.4598 106.274C57.6213 109.394 57.8372 112.458 57.9961 115.577C55.1121 115.646 52.3324 115.819 49.5861 116.024C49.2847 112.927 49.0433 109.769 48.8711 106.541C51.7169 106.436 54.4884 106.253 57.4598 106.274Z" fill="white"/>
<path opacity="0.78" fill-rule="evenodd" clip-rule="evenodd" d="M82.513 106.274C82.77 109.088 82.8998 112.029 83.2286 114.773C79.6828 114.805 76.4096 115.112 72.8501 115.131C72.7702 112.259 72.5846 109.013 72.6707 106.274C75.951 106.274 79.232 106.274 82.513 106.274Z" fill="white"/>
<path opacity="0.78" fill-rule="evenodd" clip-rule="evenodd" d="M94.86 106.274C98.4691 106.274 102.078 106.274 105.687 106.274C105.604 108.803 105.479 110.77 104.523 112.178C102.839 114.649 98.9757 114.245 94.9501 114.415C95.0316 111.648 94.7119 108.805 94.86 106.274Z" fill="white"/>
<path opacity="0.78" fill-rule="evenodd" clip-rule="evenodd" d="M46.0961 106.63C46.5802 106.762 46.3375 107.405 46.3656 107.705C46.6043 110.323 46.7977 113.394 46.9905 116.115C43.6678 116.43 40.2107 116.61 36.7017 116.742C36.3964 113.647 36.3775 110.263 36.2539 106.99C39.5632 106.897 42.9186 106.85 46.0961 106.63Z" fill="white"/>
<path opacity="0.78" fill-rule="evenodd" clip-rule="evenodd" d="M33.7497 107.078C33.7513 110.446 33.9587 113.61 34.1068 116.83C30.9214 116.494 28.0664 116.273 26.1446 114.773C24.122 113.194 23.245 110.66 22.834 107.436C26.5605 107.406 30.1422 107.229 33.7497 107.078Z" fill="white"/>
</g>
<path fill-rule="evenodd" clip-rule="evenodd" d="M26.2153 68.4647C23.8496 68.4725 26.5346 62.9677 27.9623 64.807C28.7069 65.7656 27.141 67.782 26.2153 68.4647Z" fill="#8F7ECE"/>
<path fill-rule="evenodd" clip-rule="evenodd" d="M105.535 75.1008C104.759 74.1712 104.461 72.1535 104.287 70.1527C104.211 69.2952 104.115 67.9077 104.873 67.7544C105.783 67.5711 106.145 69.1302 106.271 69.6863C106.675 71.4551 106.803 73.6705 106.526 74.8679C106.35 75.0933 105.851 75.1941 105.535 75.1008Z" fill="#8F7ECE"/>
<path fill-rule="evenodd" clip-rule="evenodd" d="M102.473 68.1225C100.671 68.8649 99.7319 64.7023 101.343 64.5222C102.041 64.4478 103.246 66.2904 103.132 67.3403C103.087 67.7154 102.788 67.9917 102.473 68.1225Z" fill="#8F7ECE"/>
<path fill-rule="evenodd" clip-rule="evenodd" d="M27.8057 59.8611C27.638 58.4133 28.4296 57.5098 28.9763 56.6177C29.613 55.5818 30.4353 54.1926 30.1469 52.2036C30.0765 51.6993 29.8305 51.0258 29.4274 50.9407C28.4172 50.7277 28.0885 52.1527 27.895 53.1935C27.6977 54.2679 27.7933 55.9272 26.9051 55.8975C26.2576 55.8747 26.0877 54.7128 26.0939 53.7347C26.1063 51.2587 27.5245 48.085 30.2386 48.9579C31.8358 49.4732 32.905 52.4606 32.7609 55.086C32.6888 56.4125 32.313 57.6905 31.6803 58.7796C30.8831 60.1557 29.0304 61.6786 27.8057 59.8611Z" fill="#4D3D87"/>
<path fill-rule="evenodd" clip-rule="evenodd" d="M42.4551 58.7455C42.0337 57.6055 42.8074 56.4541 43.2647 55.412C43.9523 53.849 44.981 51.6838 43.8968 49.825C43.069 49.9548 42.8443 50.6848 42.5452 51.3567C42.2735 51.9666 42.2076 52.9432 41.4639 53.0694C40.9 52.6653 41.4959 51.7641 41.734 50.9966C42.1342 49.7076 42.9711 47.4094 44.8874 48.292C46.1216 48.8621 46.5695 51.5119 46.4191 53.6096C46.3297 54.8578 45.8897 56.4411 45.2485 57.3941C44.6336 58.3055 43.5971 59.2272 42.4551 58.7455Z" fill="#4D3D87"/>
<path fill-rule="evenodd" clip-rule="evenodd" d="M36.5975 49.9148C35.8669 50.1043 35.6784 50.8457 35.4269 51.5365C35.1777 52.2201 35.1624 53.123 34.6157 53.5183C33.8662 53.3898 34.1183 51.8848 34.254 51.1761C34.543 49.6829 36.0339 47.1325 38.0392 48.5638C39.1622 49.3648 39.4205 51.6914 39.3015 53.3389C39.1795 55.0383 38.5428 57.0592 37.6791 58.1141C37.3963 58.4611 36.7834 59.0247 36.4168 59.1053C35.589 59.2902 34.7285 58.8812 34.7067 58.3858C34.6653 57.4907 35.6787 56.4884 36.059 55.6812C36.6376 54.4469 37.1546 53.0463 37.1386 51.5365C37.1341 51.087 37.12 50.3518 36.5975 49.9148Z" fill="#4D3D87"/>
<path fill-rule="evenodd" clip-rule="evenodd" d="M50.1142 58.0437C49.9482 56.5975 50.7382 55.6914 51.2865 54.8003C51.9231 53.7627 52.7438 52.3752 52.4571 50.3862C52.3866 49.882 52.1407 49.2084 51.7375 49.1233C50.7274 48.9103 50.397 50.3353 50.2052 51.3761C50.0079 52.4499 50.1034 54.1098 49.2136 54.0801C48.5662 54.0573 48.3979 52.8955 48.4024 51.9173C48.4165 49.4413 49.834 46.2676 52.5487 47.1405C54.1463 47.6558 55.2136 50.6432 55.071 53.2686C54.9989 54.5951 54.6216 55.8731 53.9904 56.9622C53.1916 58.3383 51.3386 59.8612 50.1142 58.0437Z" fill="#4D3D87"/>
<path fill-rule="evenodd" clip-rule="evenodd" d="M88.8952 58.5957C88.7285 57.1471 89.5178 56.2443 90.0668 55.3516C90.7025 54.3156 91.5232 52.9265 91.2374 50.9358C91.1663 50.4339 90.9204 49.7613 90.5179 49.6752C89.5071 49.4622 89.178 50.8866 88.9862 51.929C88.7872 53.0002 88.8844 54.662 87.9933 54.6314C87.3475 54.6095 87.1772 53.4474 87.1838 52.4695C87.1962 49.9935 88.6144 46.8189 91.3284 47.6921C92.926 48.2074 93.9949 51.1955 93.8514 53.8185C93.7786 55.1467 93.4035 56.4253 92.7701 57.5147C91.9726 58.8879 90.12 60.4134 88.8952 58.5957Z" fill="#4D3D87"/>
<path fill-rule="evenodd" clip-rule="evenodd" d="M72.9111 58.1653C72.7445 56.7158 73.5351 55.813 74.0818 54.9212C74.7185 53.8846 75.5391 52.4968 75.2531 50.5071C75.1816 50.0029 74.936 49.3287 74.5325 49.2448C73.5224 49.0318 73.192 50.4562 73.0002 51.4977C72.8029 52.5705 72.9001 54.2297 72.0106 54.2007C71.3628 54.1788 71.1929 53.0167 71.1994 52.0385C71.2121 49.5615 72.63 46.3866 75.3441 47.2611C76.9417 47.7771 78.0089 50.7645 77.867 53.3902C77.7943 54.7157 77.4175 55.993 76.7854 57.0837C75.987 58.4598 74.1366 59.9827 72.9111 58.1653Z" fill="#4D3D87"/>
<path fill-rule="evenodd" clip-rule="evenodd" d="M64.9811 58.3139C64.563 57.1739 65.335 56.0235 65.7939 54.9811C66.4799 53.418 67.5086 51.2513 66.4257 49.3931C65.5966 49.5239 65.3742 50.2535 65.0728 50.9248C64.8011 51.5357 64.7358 52.5113 63.9912 52.6375C63.4272 52.2334 64.0235 51.3322 64.2613 50.5657C64.6631 49.276 65.4971 46.9801 67.4163 47.8627C68.6489 48.4305 69.0984 51.081 68.947 53.179C68.857 54.4272 68.4186 56.0104 67.7758 56.9625C67.1613 57.8739 66.1244 58.7963 64.9811 58.3139Z" fill="#4D3D87"/>
<path fill-rule="evenodd" clip-rule="evenodd" d="M59.1245 49.4844C58.3939 49.673 58.2044 50.4147 57.9539 51.1062C57.705 51.7921 57.6893 52.692 57.1427 53.0873C56.3931 52.9588 56.6456 51.4548 56.7826 50.7451C57.0716 49.2525 58.5609 46.7015 60.5678 48.1328C61.6908 48.9339 61.9475 51.2604 61.8284 52.9079C61.7078 54.6079 61.0711 56.6289 60.2057 57.6831C59.9229 58.0298 59.3114 58.5938 58.9451 58.676C58.116 58.8599 57.2552 58.4512 57.2333 57.9538C57.1919 57.0595 58.2044 56.0581 58.584 55.2499C59.1643 54.0182 59.6809 52.6157 59.6653 51.1058C59.6607 50.6567 59.6467 49.9222 59.1245 49.4844Z" fill="#4D3D87"/>
<path fill-rule="evenodd" clip-rule="evenodd" d="M96.6651 60.902C96.2447 59.7634 97.0167 58.6116 97.4757 57.5685C98.1616 56.0072 99.1904 53.8397 98.1058 51.9832C97.2796 52.1123 97.0533 52.8413 96.7542 53.5139C96.4825 54.1232 96.4189 55.0994 95.6726 55.2263C95.1086 54.8222 95.7062 53.9193 95.9427 53.1528C96.3429 51.8631 97.1798 49.5672 99.0977 50.4498C100.33 51.0177 100.778 53.6682 100.629 55.7651C100.539 57.0134 100.1 58.5989 99.4575 59.5504C98.8427 60.461 97.8051 61.3844 96.6651 60.902Z" fill="#4D3D87"/>
<path fill-rule="evenodd" clip-rule="evenodd" d="M82.0898 49.135C81.3585 49.3238 81.169 50.0646 80.9185 50.7577C80.6696 51.442 80.6546 52.3432 80.1073 52.7395C79.3587 52.611 79.6102 51.106 79.7462 50.3972C80.0352 48.904 81.5262 46.3521 83.5324 47.7843C84.6555 48.5854 84.9105 50.9116 84.7931 52.5601C84.6711 54.2601 84.0367 56.2804 83.1714 57.3353C82.8886 57.6807 82.2747 58.2449 81.9091 58.3275C81.0799 58.5098 80.2198 58.1011 80.199 57.6053C80.1575 56.7119 81.1693 55.7096 81.5506 54.9014C82.1299 53.6681 82.6462 52.2672 82.6306 50.7573C82.6254 50.3079 82.611 49.5733 82.0898 49.135Z" fill="#4D3D87"/>
<path fill-rule="evenodd" clip-rule="evenodd" d="M139.059 134.824C138.991 136.335 137.89 137.879 137.803 139.679C137.737 141.011 137.911 142.545 138.392 143.907C139.316 146.533 141.919 147.454 142.895 149.472C132.539 154.089 121.01 157.997 109.28 162.256C105.88 163.489 100.089 165.663 96.8742 164.481C93.6918 163.31 91.1369 156.659 93.5492 153.117C95.0715 150.886 99.5296 148.936 103.537 147.528C111.088 144.882 120.334 142.43 127.341 139.604C131.583 137.895 135.428 136.247 139.059 134.824Z" fill="#8F7ECE"/>
<path opacity="0.81" fill-rule="evenodd" clip-rule="evenodd" d="M139.059 134.824C138.991 136.335 137.89 137.879 137.803 139.679C137.737 141.011 137.911 142.545 138.392 143.907C139.316 146.533 141.919 147.454 142.895 149.472C132.539 154.089 121.01 157.997 109.28 162.256C105.88 163.489 100.089 165.663 96.8742 164.481C93.6918 163.31 91.1369 156.659 93.5492 153.117C95.0715 150.886 99.5296 148.936 103.537 147.528C111.088 144.882 120.334 142.43 127.341 139.604C131.583 137.895 135.428 136.247 139.059 134.824Z" fill="white"/>
<path fill-rule="evenodd" clip-rule="evenodd" d="M130.496 143.449C130.607 144.784 98.1392 156.354 97.5817 154.968C97.1887 154.007 105.528 151.542 113.638 148.757C122.129 145.841 130.426 142.634 130.496 143.449Z" fill="#8F7ECE"/>
<path fill-rule="evenodd" clip-rule="evenodd" d="M137.664 144.764C137.775 146.095 105.307 157.667 104.744 156.281C104.355 155.321 112.696 152.856 120.805 150.071C129.3 147.152 137.594 143.947 137.664 144.764Z" fill="#8F7ECE"/>
<path fill-rule="evenodd" clip-rule="evenodd" d="M96.3622 152.642C94.1596 155.139 94.6628 160.709 97.6395 162.28C110.71 158.084 124.117 153.207 137.905 149.414C139.602 148.948 142.797 147.282 143.601 149.414C144.435 151.602 140.754 152.225 139.142 152.875C128.155 157.308 116.107 162.365 103.127 165.381C100.807 165.922 98.0325 166.712 96.0872 166.442C94.547 166.23 92.6018 164.647 91.0945 163.534C83.7433 158.125 75.9901 151.394 69.3685 145.156C66.8495 142.786 63.0212 139.638 61.7775 136.761C59.2239 130.852 63.4469 128.389 68.2439 126.007C71.6902 124.296 75.2576 123.165 78.3673 122.073C86.2659 119.303 92.1797 116.568 98.3822 114.229C103.066 112.458 108.697 116.462 112.243 118.059C119.969 121.539 125.141 123.867 132.808 128.216C134.794 129.348 141.366 132.958 140.986 135.142C140.583 137.468 133.044 139.097 130.47 140.057C118.977 144.34 107.705 148.597 96.3622 152.642Z" fill="#4D3D87"/>
<path opacity="0.21" fill-rule="evenodd" clip-rule="evenodd" d="M91.3393 154.026C88.9299 155.462 63.5814 132.979 64.4804 131.787C65.0678 131 70.4558 136.194 76.6968 141.373C83.9329 147.377 92.0745 153.59 91.3393 154.026Z" fill="black"/>
<path fill-rule="evenodd" clip-rule="evenodd" d="M69.4258 125.908C69.8524 123.878 71.3293 122.914 71.861 120.954C72.2204 119.629 72.1125 117.681 72.4093 116.16C74.2417 116.199 76.0738 118.857 77.5243 120.481C80.5525 123.865 82.6126 126.562 85.9389 130.23C87.1637 131.584 89.2684 134.149 90.5614 134.359C93.4594 134.832 98.247 132.363 101.236 131.331C108.367 128.87 113.635 126.845 121.58 124.645C126.046 123.407 132.153 122.228 133.163 126.765C134.119 131.062 129.749 133.387 126.262 135.182C122.617 137.059 118.706 138.736 115.509 140.117C112.067 141.604 108.654 143.305 104.267 144.855C100.655 146.134 95.3652 148.39 91.6844 147.807C89.6021 147.479 86.8936 144.63 85.3488 143.11C79.4755 137.316 75.2173 131.762 69.4258 125.908Z" fill="#8F7ECE"/>
<path opacity="0.81" fill-rule="evenodd" clip-rule="evenodd" d="M69.4258 125.908C69.8524 123.878 71.3293 122.914 71.861 120.954C72.2204 119.629 72.1125 117.681 72.4093 116.16C74.2417 116.199 76.0738 118.857 77.5243 120.481C80.5525 123.865 82.6126 126.562 85.9389 130.23C87.1637 131.584 89.2684 134.149 90.5614 134.359C93.4594 134.832 98.247 132.363 101.236 131.331C108.367 128.87 113.635 126.845 121.58 124.645C126.046 123.407 132.153 122.228 133.163 126.765C134.119 131.062 129.749 133.387 126.262 135.182C122.617 137.059 118.706 138.736 115.509 140.117C112.067 141.604 108.654 143.305 104.267 144.855C100.655 146.134 95.3652 148.39 91.6844 147.807C89.6021 147.479 86.8936 144.63 85.3488 143.11C79.4755 137.316 75.2173 131.762 69.4258 125.908Z" fill="white"/>
<path fill-rule="evenodd" clip-rule="evenodd" d="M68.5552 124.128C69.6303 123.174 81.2814 135.858 86.3714 141.123C88.2351 143.051 90.076 146.267 92.0533 146.587C94.6489 147.007 100.938 144.156 103.183 143.284C110.493 140.456 116.136 138.131 123.137 134.729C125.576 133.543 131.045 131.46 131.728 129.501C132.13 128.332 132.147 126.335 131.414 125.726C129.991 124.541 124.323 126.606 121.111 127.535C112.715 129.96 105.1 133.047 96.636 135.993C94.8906 136.6 92.8406 137.471 91.5258 137.367C89.4383 137.207 87.5371 134.318 85.9013 132.612C80.7739 127.269 71.4164 117.851 71.9004 115.724C72.4242 113.414 97.8102 105.108 108.23 104.142C109.443 104.028 111.854 103.721 113.72 104.396C119.285 106.416 125.693 113.963 129.682 119.215C131.195 121.21 133.261 123.59 133.773 125.53C135.209 130.997 132.554 132.337 129.034 134.236C120.464 138.861 112.541 141.914 102.907 145.681C101.452 146.25 99.3846 147.15 97.3855 147.809C95.3479 148.477 92.8377 149.319 91.0718 149.047C89.1471 148.75 86.6639 145.232 85.1551 143.599C81.1976 139.32 67.6696 124.918 68.5552 124.128Z" fill="#EFAD1B"/>
<path opacity="0.12" fill-rule="evenodd" clip-rule="evenodd" d="M125.145 122.131C124.757 122.976 122.736 120.96 121.664 119.823C119.618 117.637 115.238 113.871 113.013 111.157C111.696 109.554 109.17 106.598 109.958 105.946C110.577 105.437 112.604 107.774 113.665 108.929C115.903 111.364 120.28 115.458 122.647 117.974C123.585 118.972 125.639 121.054 125.145 122.131Z" fill="white"/>
<path d="M87.9073 138.985C89.1892 140.127 90.4247 141.304 91.7066 142.347C92.1919 142.728 92.7402 143.122 93.1395 143.285C93.2367 143.327 93.31 143.322 93.2507 143.312C93.1636 143.327 93.3195 143.298 93.3479 143.289L93.5406 143.235C93.8264 143.147 94.1326 143.043 94.434 142.937C95.6555 142.517 96.8953 142.071 98.126 141.602C100.605 140.718 103.086 139.816 105.607 139.01C107.22 138.49 108.841 137.985 110.484 137.539C111.407 137.286 111.722 137.721 110.934 138.138C109.367 138.964 107.772 139.725 106.163 140.448C103.749 141.549 101.291 142.53 98.7979 143.458C97.5405 143.89 96.2906 144.337 94.9915 144.712C94.6627 144.804 94.3391 144.896 93.9813 144.972L93.6907 145.027C93.5527 145.049 93.5481 145.064 93.2937 145.072C92.9075 145.065 92.6554 144.962 92.4551 144.867C91.6518 144.466 91.1912 143.976 90.6814 143.491C89.4208 142.205 88.3392 140.825 87.3183 139.406C86.7869 138.668 87.2057 138.355 87.9073 138.985Z" fill="#8F7ECE"/>
<path fill-rule="evenodd" clip-rule="evenodd" d="M129.128 127.066C129.239 128.401 96.7699 139.97 96.2125 138.586C95.8211 137.626 104.16 135.158 112.271 132.374C120.761 129.457 129.057 126.252 129.128 127.066Z" fill="#8F7ECE"/>
<path fill-rule="evenodd" clip-rule="evenodd" d="M89.2148 127.912C89.3988 129.01 90.6242 130.426 91.9139 131.746C92.4651 132.309 93.3735 133.209 93.9349 132.771C94.6068 132.25 93.7382 131.064 93.4273 130.641C92.439 129.304 90.9716 127.888 89.9732 127.362C89.7113 127.351 89.3434 127.637 89.2148 127.912Z" fill="white"/>
<path fill-rule="evenodd" clip-rule="evenodd" d="M90.5617 132.915C88.9641 133.724 91.3002 136.87 92.388 135.855C92.8586 135.416 92.2979 133.472 91.4975 132.926C91.2101 132.73 90.8396 132.774 90.5617 132.915Z" fill="white"/>
<path fill-rule="evenodd" clip-rule="evenodd" d="M73.0151 122.026C72.5461 121.779 72.5546 120.879 72.5797 120.307C72.6782 118.034 74.4552 117.18 76.5052 115.885C79.2444 114.153 81.9999 112.608 84.696 111.11C86.4462 110.136 88.7725 108.625 91.302 108.415C94.3905 108.161 97.3267 108.573 100.222 108.947C107.244 109.854 113.614 111.056 120.419 112.542C121.789 112.842 123.778 113.004 123.94 113.812C124.249 115.358 121.955 115.16 120.418 114.884C119.33 114.689 117.54 114.304 116.351 114.051C109.248 112.528 102.947 111.491 95.4744 110.509C93.4462 110.244 91.4119 109.936 89.5397 110.708C88.1042 111.299 86.762 112.589 85.3888 113.588C82.6591 115.572 80.0484 117.585 77.4002 119.614C76.1258 120.588 74.8919 121.97 73.0151 122.026Z" fill="#4D3D87"/>
<path fill-rule="evenodd" clip-rule="evenodd" d="M118.944 131.773C119.919 132.128 120.721 129.761 120.777 129.219C120.921 127.801 117.485 122.684 115.986 120.168C115.012 118.533 113.821 116.182 111.844 114.805C109.429 113.122 106.822 112.058 104.265 110.985C98.0653 108.38 92.2613 106.328 85.9617 104.303C84.6932 103.896 82.9827 103.08 82.4654 103.667C81.4732 104.788 83.4527 105.721 84.8458 106.225C85.8331 106.585 87.4862 107.126 88.5851 107.483C95.1437 109.621 100.815 111.774 107.419 114.534C109.211 115.283 111.028 116.001 112.197 117.527C113.094 118.698 113.582 120.398 114.234 121.872C115.528 124.805 117.269 131.162 118.944 131.773Z" fill="#4D3D87"/>
<path fill-rule="evenodd" clip-rule="evenodd" d="M91.5066 97.6827C96.5228 97.2222 100.952 99.8142 101.91 104.393C102.597 107.679 101.021 110.443 99.4795 112.17C97.0036 114.944 92.5001 117.301 88.2018 117.612C82.5372 118.026 77.8469 115.2 78.0912 109.35C78.207 106.547 80.0143 104.205 81.5913 102.545C83.5692 100.462 85.6639 99.0155 88.6888 98.1697C89.5372 97.9309 90.3679 97.7884 91.5066 97.6827ZM85.4803 102.253C83.8703 103.299 81.9149 105.137 81.2025 106.921C79.176 111.993 83.6886 114.865 88.3972 114.503C93.0272 114.147 97.4713 111.18 98.9926 107.988C99.3315 107.278 99.7049 106.266 99.6746 105.073C99.5718 101.304 95.7162 99.6505 92.0908 100.015C89.2717 100.302 87.3541 101.034 85.4803 102.253Z" fill="#4D3D87"/>
<path fill-rule="evenodd" clip-rule="evenodd" d="M116.821 102.014C121.839 101.552 126.268 104.144 127.224 108.721C127.913 112.009 126.336 114.773 124.794 116.499C122.318 119.274 117.815 121.631 113.517 121.944C107.852 122.356 103.163 119.532 103.408 113.679C103.523 110.877 105.329 108.536 106.907 106.874C108.884 104.791 110.98 103.345 114.004 102.5C114.852 102.263 115.683 102.119 116.821 102.014ZM110.795 106.583C109.186 107.63 107.23 109.466 106.517 111.25C104.492 116.323 109.003 119.196 113.712 118.832C118.341 118.476 122.786 115.51 124.308 112.319C124.648 111.608 125.02 110.596 124.99 109.403C124.89 105.636 121.033 103.981 117.406 104.347C114.586 104.632 112.669 105.365 110.795 106.583Z" fill="#4D3D87"/>
<path opacity="0.6" fill-rule="evenodd" clip-rule="evenodd" d="M85.4786 102.253C83.8687 103.299 81.9133 105.137 81.2009 106.921C79.1744 111.993 83.687 114.865 88.3956 114.503C93.0256 114.147 97.4697 111.18 98.991 107.988C99.3299 107.278 99.7033 106.266 99.673 105.073C99.5702 101.304 95.7146 99.6505 92.0892 100.015C89.2701 100.302 87.3525 101.034 85.4786 102.253Z" fill="white"/>
<path opacity="0.6" fill-rule="evenodd" clip-rule="evenodd" d="M110.794 106.584C109.185 107.63 107.229 109.466 106.517 111.251C104.492 116.323 109.003 119.196 113.711 118.832C118.341 118.476 122.786 115.51 124.308 112.319C124.648 111.608 125.019 110.596 124.989 109.403C124.889 105.636 121.032 103.981 117.405 104.347C114.585 104.632 112.668 105.365 110.794 106.584Z" fill="white"/>
<path fill-rule="evenodd" clip-rule="evenodd" d="M118.448 103.898C119.019 104.77 117.236 105.197 116.312 105.402C115.344 105.62 114.343 105.903 114.167 105.308C114.076 105.004 114.38 104.782 114.62 104.555C115.193 104.004 117.576 103.474 118.136 103.651C118.239 103.685 118.386 103.798 118.448 103.898Z" fill="white"/>
<path fill-rule="evenodd" clip-rule="evenodd" d="M115.622 106.946C116.289 107.996 113.551 108.63 113.375 107.635C113.226 106.793 115.263 106.377 115.622 106.946Z" fill="white"/>
<path fill-rule="evenodd" clip-rule="evenodd" d="M112.72 105.714C112.816 105.86 112.886 106.073 112.821 106.266C112.616 106.85 110.197 107.776 109.978 106.689C109.89 106.251 110.601 105.811 111.308 105.567C111.872 105.37 112.468 105.33 112.72 105.714Z" fill="white"/>
<path fill-rule="evenodd" clip-rule="evenodd" d="M91.5485 113.079C91.2439 114.583 95.0871 113.569 94.0965 112.428C93.5799 111.834 92.1001 112.577 91.5485 113.079Z" fill="white"/>
<path fill-rule="evenodd" clip-rule="evenodd" d="M89.7599 115.069C90.0192 114.873 90.4458 114.332 90.0143 113.842C89.452 113.199 87.7699 113.523 87.0778 113.525C86.2376 113.528 84.6533 113.153 84.1876 113.978C83.5228 115.153 85.9629 115.332 86.8028 115.36C87.2506 115.373 87.6907 115.344 88.069 115.337C88.7184 115.324 89.2612 115.443 89.7599 115.069Z" fill="white"/>
<path fill-rule="evenodd" clip-rule="evenodd" d="M36.4545 86.1232C35.7144 83.251 36.1006 78.9732 34.0786 75.7572C33.6168 75.0203 32.8102 74.1606 32.1467 74.4659C31.089 74.9522 31.6793 78.2119 31.7654 79.1252C31.9432 80.956 32.1797 82.4313 32.4843 84.1072C31.6748 82.5412 31.0638 80.5193 29.9708 78.4699C29.1965 77.0214 27.5608 74.0826 26.3233 74.5578C24.6053 75.2164 26.5503 80.0346 27.0842 81.5389C27.8556 83.7063 29.1022 86.8027 30.6581 89.3403C32.2054 91.8671 35.1511 95.0134 37.5615 92.2135C38.1111 91.5713 38.6522 90.5504 39.0837 89.674C39.9341 87.941 40.4008 86.2253 40.7453 84.3247C40.9136 83.3896 41.1439 82.3576 41.0851 81.5089C41.0281 80.6436 40.7962 79.7065 39.8666 79.4299C38.404 79.9465 37.9121 81.3419 37.4656 82.443C36.9832 83.6254 36.7004 84.9079 36.4118 86.045C36.4261 86.0724 36.4405 86.0991 36.4545 86.1232Z" fill="#FF5000"/>
<path fill-rule="evenodd" clip-rule="evenodd" d="M54.6349 124.763C54.6209 127.184 54.5628 129.779 54.3789 132.114C54.3218 132.904 54.3554 133.756 54.1284 134.396C53.7265 135.532 52.17 136.574 51.6782 137.946C51.1129 139.521 51.2655 141.772 51.17 143.862C51.0711 145.978 51.0346 148.065 50.9169 150.031C50.6615 154.231 51.2271 158.738 49.985 161.863C49.9804 161.873 49.923 161.992 49.9028 162.031C48.2224 165.098 42.5421 166.191 38.4092 166.678C31.7902 167.457 23.4724 167.095 21.3403 162.453C20.973 161.654 20.8305 160.548 20.6638 159.494C19.8298 154.248 19.6292 148.616 18.9722 143.186C18.8437 142.106 18.6944 141.023 18.5518 139.973C18.407 138.913 18.2661 137.853 17.9608 137.017C17.4542 135.645 16.0948 135.053 15.5921 133.806C14.6681 131.503 15.1169 127.559 15.0869 124.51C16.04 123.567 17.2223 122.851 18.4673 122.143C22.0741 120.098 26.7012 119.021 32.2412 118.763C36.6162 118.561 41.5613 119.17 45.3403 119.947C49.3976 120.782 53.0765 122.109 54.6349 124.763Z" fill="#4D3D87"/>
<path fill-rule="evenodd" clip-rule="evenodd" d="M52.2168 126.61C52.3202 127.325 51.555 127.642 51.0703 127.924C43.8802 132.109 29.9849 132.043 19.9816 129.547C19.3762 129.396 18.6237 129.225 18.2362 128.727C18.1452 128.324 18.5337 128.331 18.7617 128.153C19.2715 127.753 19.854 127.158 20.5025 126.774C22.3714 125.673 24.8373 124.783 27.3557 124.223C34.6688 122.595 45.6431 122.79 51.5442 126.417C51.7135 126.864 52.1503 126.235 52.2168 126.61Z" fill="#EFAD1B"/>
<path fill-rule="evenodd" clip-rule="evenodd" d="M34.0987 118.596C38.4502 118.388 42.8228 118.748 46.4371 119.608C48.2601 120.045 49.5951 120.332 51.5058 121.215C53.0075 121.905 54.7813 123.147 54.9708 124.425C55.2487 126.296 53.7767 127.882 52.5222 128.737C51.0688 129.725 49.3319 130.24 47.704 130.679C44.0502 131.658 39.6149 131.863 35.45 131.863C31.5526 131.863 26.8841 131.767 23.0284 130.849C21.4693 130.476 19.7498 129.82 18.1297 128.989C16.6622 128.237 15.0069 127 14.833 125.608C14.382 122.069 19.8245 120.806 22.4381 120.116C26.1179 119.144 29.5783 118.811 34.0987 118.596ZM20.241 127.637C24.4649 129.092 29.7825 129.394 35.1989 129.581C41.0093 129.782 45.7036 128.884 49.6476 127.214C50.5153 126.847 53.0013 125.971 52.9426 124.848C52.8934 123.896 50.5404 122.915 49.4793 122.482C45.257 120.762 39.7421 120.262 33.8456 120.537C29.0704 120.766 23.5115 121.668 19.9024 123.158C18.6395 123.678 17.2917 124.364 16.7747 125.523C17.4871 126.68 18.902 127.176 20.241 127.637Z" fill="#8F7ECE"/>
<path opacity="0.21" fill-rule="evenodd" clip-rule="evenodd" d="M20.4102 137.779C26.427 138.733 30.9628 139.039 36.466 138.791C42.5386 138.516 51.5061 136.51 51.5061 136.51C51.5061 136.51 46.2971 140.101 36.5504 140.481C30.4514 140.72 24.5264 140.001 20.4102 137.779Z" fill="black"/>
<path fill-rule="evenodd" clip-rule="evenodd" d="M25.4601 158.636C24.2817 158.949 24.4758 163.051 25.9683 162.66C27.0131 162.388 26.5245 158.971 25.4601 158.636Z" fill="white"/>
<path fill-rule="evenodd" clip-rule="evenodd" d="M23.9289 156.029C24.9077 155.974 24.7567 154.935 24.7896 154.123C24.8187 153.404 25.0222 152.515 25.0026 151.891C24.9808 151.066 24.7616 150.029 24.1608 149.734C23.4608 150.344 23.3434 151.684 23.2524 152.736C23.1637 153.77 23.0251 155.183 23.9289 156.029Z" fill="white"/>
<path fill-rule="evenodd" clip-rule="evenodd" d="M23.5263 146.158C24.5074 145.193 24.357 143.659 24.3978 142.222C24.1998 142.21 24.0361 142.127 23.9125 141.976C23.188 142.175 22.9392 143.335 22.8452 144.083C22.7519 144.84 22.5875 146.052 23.5263 146.158Z" fill="white"/>
<path fill-rule="evenodd" clip-rule="evenodd" d="M28.0923 151.01C29.0062 150.473 29.1784 148.151 27.9866 147.802C26.7987 148.188 26.8982 150.696 28.0923 151.01Z" fill="white"/>
<path fill-rule="evenodd" clip-rule="evenodd" d="M28.3369 123.194C28.5874 124.38 28.8461 125.564 29.1201 126.744H40.7501C41.2341 126.083 41.5645 124.586 41.9011 123.499C42.9902 119.99 44.0177 116.538 44.4593 112.911C44.7802 110.249 44.6925 107.772 44.5337 105.378C44.3588 102.777 43.9479 99.7016 42.8953 97.3463C41.8835 95.0693 40.1672 92.9736 38.6551 92.3324C36.7515 91.5251 32.902 92.2039 30.4228 93.3135C27.7557 94.5076 26.0753 96.2204 25.3495 98.0652C24.4953 100.233 24.6049 103.284 24.8782 106.016C25.4402 111.655 27.1412 117.526 28.3369 123.194Z" fill="#B1BC00"/>
<path opacity="0.21" d="M29.4767 125.316C29.5338 125.794 29.6065 126.268 29.678 126.744H31.3552C30.9292 123.163 30.3819 119.526 29.9989 115.923C29.6574 112.708 29.3225 109.466 29.1727 106.138C29.0286 103.001 28.6411 99.5201 29.4875 96.7551C29.9246 95.3301 30.7625 94.1477 31.4882 92.8945C31.1148 93.0253 30.756 93.1662 30.4239 93.3133C30.286 93.3753 30.1623 93.4441 30.0293 93.5074C29.572 94.2279 29.132 94.9732 28.8185 95.697C27.6613 98.3563 27.7741 102.174 27.8563 105.225C28.0341 111.801 28.6639 118.526 29.4767 125.316Z" fill="black"/>
<path opacity="0.21" d="M33.7395 126.744H35.3266C35.4049 122.032 35.1952 117.204 35.0964 112.371C35.0282 108.918 34.4629 105.24 34.3282 101.545C34.2679 99.8566 34.412 98.0359 34.4949 96.2906C34.5647 94.8668 34.7046 93.4379 34.6851 92.1162C34.4104 92.1544 34.1332 92.2023 33.8549 92.2565C32.5369 98.6087 33.4117 105.356 33.5927 112.067C33.7215 116.927 33.5666 121.809 33.7395 126.744Z" fill="black"/>
<path opacity="0.21" d="M37.9566 100.81C39.4429 109.802 38.6308 118.342 37.8391 126.744H39.2965C39.5346 125.208 39.7176 123.598 39.8493 122.172C40.1612 118.836 40.1876 115.32 40.2708 112.022C40.3575 108.607 40.197 105.095 39.5496 101.473C38.9873 98.3194 37.8737 95.2419 36.9099 91.9894C36.5928 91.9753 36.2591 91.9766 35.916 91.9933C35.9685 92.2386 36.0289 92.4789 36.0752 92.7082C36.6144 95.3082 37.5149 98.1475 37.9566 100.81Z" fill="black"/>
<path fill-rule="evenodd" clip-rule="evenodd" d="M26.252 98.9703C26.5948 100.172 27.7735 100.498 28.526 101.09C28.6545 101.545 27.9255 101.753 28.2276 102.261C28.5479 102.518 29.0818 102.084 29.5564 101.853C30.3252 101.89 31.0623 103.121 31.9081 102.207C31.8562 101.539 31.1572 101.237 30.7508 101.007C31.0258 100.337 31.9834 99.865 31.3931 98.9413C30.6445 98.8686 30.2733 99.7832 29.6803 100.166C28.4468 100.053 27.6284 98.6142 26.252 98.9703Z" fill="white"/>
<path fill-rule="evenodd" clip-rule="evenodd" d="M39.4792 100.367C38.9961 99.9923 38.6334 99.2287 37.9592 99.4613C37.999 99.5395 37.8943 99.5757 37.8418 99.6266C37.9162 100.301 38.5529 100.881 38.9325 101.27C38.8526 101.777 37.7971 102.002 37.9889 102.586C38.3099 102.483 38.6285 102.383 38.9912 102.149C39.1941 102.692 38.8386 103.359 38.7499 103.999C38.6592 104.67 38.6034 105.38 38.7146 106.045C39.1563 105.707 39.4038 104.974 39.5676 104.372C39.7421 103.726 39.8135 103.019 39.9711 102.434C40.671 102.943 41.581 103.688 42.2386 104.354C42.4405 104.56 42.4767 105.028 42.8564 104.932C43.4451 104.567 42.8352 103.863 42.6245 103.537C42.0889 102.716 41.0044 101.896 40.5112 101.331C40.9903 100.81 42.143 100.48 41.5683 99.6508C41.2748 99.6139 40.7884 99.9632 40.6058 100.168C40.5644 99.3148 41.2268 98.6683 40.9574 97.7505C39.7329 98.1487 39.9848 99.5395 39.4792 100.367Z" fill="white"/>
<path fill-rule="evenodd" clip-rule="evenodd" d="M32.9472 107.015C32.4642 107.694 33.0709 108.687 33.5314 109.638C33.0327 109.604 32.7114 108.993 32.1445 109.169C32.3017 109.986 33.1263 110.422 33.6377 110.796C33.4522 111.271 32.5643 111.544 32.6974 112.112C33.1609 112.051 33.7389 111.622 34.2588 111.375C35.1287 112.578 35.8329 114.312 36.737 115.41C37.2139 114.644 36.3352 113.482 35.9846 112.473C36.752 112.569 37.2374 113.582 38.1826 113.114C37.9713 111.728 36.2399 111.696 35.4222 110.85C35.8515 110.336 36.9578 110.017 37.0087 109.39C36.936 109.259 36.8678 109.129 36.7957 108.999C36.1271 108.902 35.5524 109.657 34.8351 109.95C34.3097 109.003 33.9809 107.121 32.9472 107.015Z" fill="white"/>
<path fill-rule="evenodd" clip-rule="evenodd" d="M33.955 121.36C33.8141 121.961 32.8314 122.316 33.2221 123.069C33.7186 123.095 33.9981 122.566 34.503 122.38C35.0324 123.331 35.7607 124.82 36.3276 125.802H36.5752C36.7898 124.835 36.0357 123.59 35.7992 122.494C36.4186 122.576 36.8391 123.294 37.63 122.829C37.8296 121.868 36.5628 121.668 35.9753 121.287C36.3498 120.636 37.8923 120.124 37.5524 119.425C37.128 118.55 35.8149 119.927 35.1071 120.436C34.4782 119.903 34.4446 117.883 33.393 118.015C32.9599 118.53 33.3493 119.284 33.6413 120.01C33.1425 120.186 32.8715 119.625 32.3438 119.897C32.5196 120.719 33.3944 121.067 33.955 121.36Z" fill="white"/>
<path fill-rule="evenodd" clip-rule="evenodd" d="M26.252 98.9703C26.5948 100.172 27.7735 100.498 28.526 101.09C28.6545 101.545 27.9255 101.753 28.2276 102.261C28.5479 102.518 29.0818 102.084 29.5564 101.853C30.3252 101.89 31.0623 103.121 31.9081 102.207C31.8562 101.539 31.1572 101.237 30.7508 101.007C31.0258 100.337 31.9834 99.865 31.3931 98.9413C30.6445 98.8686 30.2733 99.7832 29.6803 100.166C28.4468 100.053 27.6284 98.6142 26.252 98.9703Z" fill="#B1BC00"/>
<path fill-rule="evenodd" clip-rule="evenodd" d="M39.4792 100.367C38.9961 99.9923 38.6334 99.2287 37.9592 99.4613C37.999 99.5395 37.8943 99.5757 37.8418 99.6266C37.9162 100.301 38.5529 100.881 38.9325 101.27C38.8526 101.777 37.7971 102.002 37.9889 102.586C38.3099 102.483 38.6285 102.383 38.9912 102.149C39.1941 102.692 38.8386 103.359 38.7499 103.999C38.6592 104.67 38.6034 105.38 38.7146 106.045C39.1563 105.707 39.4038 104.974 39.5676 104.372C39.7421 103.726 39.8135 103.019 39.9711 102.434C40.671 102.943 41.581 103.688 42.2386 104.354C42.4405 104.56 42.4767 105.028 42.8564 104.932C43.4451 104.567 42.8352 103.863 42.6245 103.537C42.0889 102.716 41.0044 101.896 40.5112 101.331C40.9903 100.81 42.143 100.48 41.5683 99.6508C41.2748 99.6139 40.7884 99.9632 40.6058 100.168C40.5644 99.3148 41.2268 98.6683 40.9574 97.7505C39.7329 98.1487 39.9848 99.5395 39.4792 100.367Z" fill="#B1BC00"/>
<path fill-rule="evenodd" clip-rule="evenodd" d="M32.9472 107.015C32.4642 107.694 33.0709 108.687 33.5314 109.638C33.0327 109.604 32.7114 108.993 32.1445 109.169C32.3017 109.986 33.1263 110.422 33.6377 110.796C33.4522 111.271 32.5643 111.544 32.6974 112.112C33.1609 112.051 33.7389 111.622 34.2588 111.375C35.1287 112.578 35.8329 114.312 36.737 115.41C37.2139 114.644 36.3352 113.482 35.9846 112.473C36.752 112.569 37.2374 113.582 38.1826 113.114C37.9713 111.728 36.2399 111.696 35.4222 110.85C35.8515 110.336 36.9578 110.017 37.0087 109.39C36.936 109.259 36.8678 109.129 36.7957 108.999C36.1271 108.902 35.5524 109.657 34.8351 109.95C34.3097 109.003 33.9809 107.121 32.9472 107.015Z" fill="#B1BC00"/>
<path fill-rule="evenodd" clip-rule="evenodd" d="M33.955 121.36C33.8141 121.961 32.8314 122.316 33.2221 123.069C33.7186 123.095 33.9981 122.566 34.503 122.38C35.0324 123.331 35.7607 124.82 36.3276 125.802H36.5752C36.7898 124.835 36.0357 123.59 35.7992 122.494C36.4186 122.576 36.8391 123.294 37.63 122.829C37.8296 121.868 36.5628 121.668 35.9753 121.287C36.3498 120.636 37.8923 120.124 37.5524 119.425C37.128 118.55 35.8149 119.927 35.1071 120.436C34.4782 119.903 34.4446 117.883 33.393 118.015C32.9599 118.53 33.3493 119.284 33.6413 120.01C33.1425 120.186 32.8715 119.625 32.3438 119.897C32.5196 120.719 33.3944 121.067 33.955 121.36Z" fill="#B1BC00"/>
<g opacity="0.21">
<path opacity="0.21" fill-rule="evenodd" clip-rule="evenodd" d="M26.252 98.9703C26.5948 100.172 27.7735 100.498 28.526 101.09C28.6545 101.545 27.9255 101.753 28.2276 102.261C28.5479 102.518 29.0818 102.084 29.5564 101.853C30.3252 101.89 31.0623 103.121 31.9081 102.207C31.8562 101.539 31.1572 101.237 30.7508 101.007C31.0258 100.337 31.9834 99.865 31.3931 98.9413C30.6445 98.8686 30.2733 99.7832 29.6803 100.166C28.4468 100.053 27.6284 98.6142 26.252 98.9703Z" fill="black"/>
<path opacity="0.21" fill-rule="evenodd" clip-rule="evenodd" d="M39.4792 100.367C38.9961 99.9923 38.6334 99.2287 37.9592 99.4613C37.999 99.5395 37.8943 99.5757 37.8418 99.6266C37.9162 100.301 38.5529 100.881 38.9325 101.27C38.8526 101.777 37.7971 102.002 37.9889 102.586C38.3099 102.483 38.6285 102.383 38.9912 102.149C39.1941 102.692 38.8386 103.359 38.7499 103.999C38.6592 104.67 38.6034 105.38 38.7146 106.045C39.1563 105.707 39.4038 104.974 39.5676 104.372C39.7421 103.726 39.8135 103.019 39.9711 102.434C40.671 102.943 41.581 103.688 42.2386 104.354C42.4405 104.56 42.4767 105.028 42.8564 104.932C43.4451 104.567 42.8352 103.863 42.6245 103.537C42.0889 102.716 41.0044 101.896 40.5112 101.331C40.9903 100.81 42.143 100.48 41.5683 99.6508C41.2748 99.6139 40.7884 99.9632 40.6058 100.168C40.5644 99.3148 41.2268 98.6683 40.9574 97.7505C39.7329 98.1487 39.9848 99.5395 39.4792 100.367Z" fill="black"/>
<path opacity="0.21" fill-rule="evenodd" clip-rule="evenodd" d="M32.9472 107.015C32.4642 107.694 33.0709 108.687 33.5314 109.638C33.0327 109.604 32.7114 108.993 32.1445 109.169C32.3017 109.986 33.1263 110.422 33.6377 110.796C33.4522 111.271 32.5643 111.544 32.6974 112.112C33.1609 112.051 33.7389 111.622 34.2588 111.375C35.1287 112.578 35.8329 114.312 36.737 115.41C37.2139 114.644 36.3352 113.482 35.9846 112.473C36.752 112.569 37.2374 113.582 38.1826 113.114C37.9713 111.728 36.2399 111.696 35.4222 110.85C35.8515 110.336 36.9578 110.017 37.0087 109.39C36.936 109.259 36.8678 109.129 36.7957 108.999C36.1271 108.902 35.5524 109.657 34.8351 109.95C34.3097 109.003 33.9809 107.121 32.9472 107.015Z" fill="black"/>
<path opacity="0.21" fill-rule="evenodd" clip-rule="evenodd" d="M33.955 121.36C33.8141 121.961 32.8314 122.316 33.2221 123.069C33.7186 123.095 33.9981 122.566 34.503 122.38C35.0324 123.331 35.7607 124.82 36.3276 125.802H36.5752C36.7898 124.835 36.0357 123.59 35.7992 122.494C36.4186 122.576 36.8391 123.294 37.63 122.829C37.8296 121.868 36.5628 121.668 35.9753 121.287C36.3498 120.636 37.8923 120.124 37.5524 119.425C37.128 118.55 35.8149 119.927 35.1071 120.436C34.4782 119.903 34.4446 117.883 33.393 118.015C32.9599 118.53 33.3493 119.284 33.6413 120.01C33.1425 120.186 32.8715 119.625 32.3438 119.897C32.5196 120.719 33.3944 121.067 33.955 121.36Z" fill="black"/>
</g>
<g opacity="0.21">
<path opacity="0.21" fill-rule="evenodd" clip-rule="evenodd" d="M26.252 98.9703C26.5948 100.172 27.7735 100.498 28.526 101.09C28.6545 101.545 27.9255 101.753 28.2276 102.261C28.5479 102.518 29.0818 102.084 29.5564 101.853C30.3252 101.89 31.0623 103.121 31.9081 102.207C31.8562 101.539 31.1572 101.237 30.7508 101.007C31.0258 100.337 31.9834 99.865 31.3931 98.9413C30.6445 98.8686 30.2733 99.7832 29.6803 100.166C28.4468 100.053 27.6284 98.6142 26.252 98.9703Z" fill="black"/>
<path opacity="0.21" fill-rule="evenodd" clip-rule="evenodd" d="M39.4792 100.367C38.9961 99.9923 38.6334 99.2287 37.9592 99.4613C37.999 99.5395 37.8943 99.5757 37.8418 99.6266C37.9162 100.301 38.5529 100.881 38.9325 101.27C38.8526 101.777 37.7971 102.002 37.9889 102.586C38.3099 102.483 38.6285 102.383 38.9912 102.149C39.1941 102.692 38.8386 103.359 38.7499 103.999C38.6592 104.67 38.6034 105.38 38.7146 106.045C39.1563 105.707 39.4038 104.974 39.5676 104.372C39.7421 103.726 39.8135 103.019 39.9711 102.434C40.671 102.943 41.581 103.688 42.2386 104.354C42.4405 104.56 42.4767 105.028 42.8564 104.932C43.4451 104.567 42.8352 103.863 42.6245 103.537C42.0889 102.716 41.0044 101.896 40.5112 101.331C40.9903 100.81 42.143 100.48 41.5683 99.6508C41.2748 99.6139 40.7884 99.9632 40.6058 100.168C40.5644 99.3148 41.2268 98.6683 40.9574 97.7505C39.7329 98.1487 39.9848 99.5395 39.4792 100.367Z" fill="black"/>
<path opacity="0.21" fill-rule="evenodd" clip-rule="evenodd" d="M32.9472 107.015C32.4642 107.694 33.0709 108.687 33.5314 109.638C33.0327 109.604 32.7114 108.993 32.1445 109.169C32.3017 109.986 33.1263 110.422 33.6377 110.796C33.4522 111.271 32.5643 111.544 32.6974 112.112C33.1609 112.051 33.7389 111.622 34.2588 111.375C35.1287 112.578 35.8329 114.312 36.737 115.41C37.2139 114.644 36.3352 113.482 35.9846 112.473C36.752 112.569 37.2374 113.582 38.1826 113.114C37.9713 111.728 36.2399 111.696 35.4222 110.85C35.8515 110.336 36.9578 110.017 37.0087 109.39C36.936 109.259 36.8678 109.129 36.7957 108.999C36.1271 108.902 35.5524 109.657 34.8351 109.95C34.3097 109.003 33.9809 107.121 32.9472 107.015Z" fill="black"/>
<path opacity="0.21" fill-rule="evenodd" clip-rule="evenodd" d="M33.955 121.36C33.8141 121.961 32.8314 122.316 33.2221 123.069C33.7186 123.095 33.9981 122.566 34.503 122.38C35.0324 123.331 35.7607 124.82 36.3276 125.802H36.5752C36.7898 124.835 36.0357 123.59 35.7992 122.494C36.4186 122.576 36.8391 123.294 37.63 122.829C37.8296 121.868 36.5628 121.668 35.9753 121.287C36.3498 120.636 37.8923 120.124 37.5524 119.425C37.128 118.55 35.8149 119.927 35.1071 120.436C34.4782 119.903 34.4446 117.883 33.393 118.015C32.9599 118.53 33.3493 119.284 33.6413 120.01C33.1425 120.186 32.8715 119.625 32.3438 119.897C32.5196 120.719 33.3944 121.067 33.955 121.36Z" fill="black"/>
</g>
</svg>
