<svg width="697" height="352" viewBox="0 0 697 352" fill="none" xmlns="http://www.w3.org/2000/svg">
<g filter="url(#filter0_d_4493_1359)">
<rect x="26" y="18" width="617" height="272" rx="20" fill="white"/>
<rect x="28.5" y="20.5" width="612" height="267" rx="17.5" stroke="#4C75A3" stroke-width="5"/>
</g>
<path d="M430.159 250.099C429.833 249.772 429.556 249.4 429.334 248.994C428.862 248.2 428.611 247.292 428.611 246.367V210.224H423.453C415.246 210.214 407.378 206.947 401.575 201.139C395.773 195.332 392.507 187.458 392.499 179.245V75.9794C392.507 67.7662 395.772 59.8919 401.575 54.0851C407.378 48.2769 415.246 45.0102 423.453 45.0002H588.543C596.75 45.0103 604.618 48.2768 610.421 54.0851C616.223 59.8919 619.489 67.7665 619.497 75.9794V179.245C619.489 187.458 616.223 195.332 610.421 201.139C604.618 206.947 596.749 210.214 588.543 210.224H477.334L437.93 249.785C436.83 250.909 435.329 251.55 433.756 251.566C432.405 251.583 431.103 251.055 430.146 250.099L430.159 250.099ZM438.93 205.06V233.805L470.916 201.689C472.003 200.57 473.486 199.926 475.044 199.896H588.545C594.018 199.896 599.267 197.72 603.137 193.847C607.007 189.974 609.181 184.721 609.181 179.244V75.9786C609.181 70.5016 607.007 65.2482 603.137 61.3751C599.267 57.5019 594.018 55.3263 588.545 55.3263H423.455C417.982 55.3263 412.733 57.5021 408.863 61.3751C404.993 65.248 402.819 70.5016 402.819 75.9786V179.244C402.819 184.721 404.993 189.974 408.863 193.847C412.733 197.721 417.982 199.896 423.455 199.896H433.773C435.141 199.896 436.454 200.441 437.422 201.409C438.389 202.377 438.932 203.69 438.932 205.06L438.93 205.06ZM547.271 127.612C547.271 124.873 548.358 122.246 550.293 120.31C552.228 118.373 554.853 117.285 557.59 117.285C560.325 117.285 562.95 118.373 564.885 120.31C566.82 122.246 567.907 124.873 567.907 127.612C567.907 130.351 566.82 132.978 564.885 134.915C562.95 136.851 560.325 137.939 557.59 137.939C554.853 137.939 552.228 136.851 550.293 134.915C548.358 132.978 547.271 130.351 547.271 127.612ZM495.679 127.612C495.679 124.873 496.766 122.246 498.701 120.31C500.636 118.373 503.26 117.285 505.997 117.285C508.734 117.285 511.359 118.373 513.294 120.31C515.229 122.246 516.316 124.873 516.316 127.612C516.316 130.351 515.229 132.978 513.294 134.915C511.359 136.851 508.734 137.939 505.997 137.939C503.26 137.939 500.636 136.851 498.701 134.915C496.766 132.978 495.679 130.351 495.679 127.612ZM444.086 127.612H444.088C444.088 124.873 445.175 122.246 447.11 120.31C449.045 118.373 451.669 117.285 454.405 117.285C457.142 117.285 459.766 118.373 461.701 120.31C463.636 122.246 464.723 124.873 464.723 127.612C464.723 130.351 463.636 132.978 461.701 134.915C459.766 136.851 457.142 137.939 454.405 137.939C451.669 137.939 449.045 136.851 447.11 134.915C445.175 132.978 444.088 130.351 444.088 127.612H444.086Z" fill="#EDF0F2" fill-opacity="0.8"/>
<defs>
<filter id="filter0_d_4493_1359" x="0" y="0" width="697" height="352" filterUnits="userSpaceOnUse" color-interpolation-filters="sRGB">
<feFlood flood-opacity="0" result="BackgroundImageFix"/>
<feColorMatrix in="SourceAlpha" type="matrix" values="0 0 0 0 0 0 0 0 0 0 0 0 0 0 0 0 0 0 127 0" result="hardAlpha"/>
<feOffset dx="14" dy="22"/>
<feGaussianBlur stdDeviation="20"/>
<feColorMatrix type="matrix" values="0 0 0 0 0.117326 0 0 0 0 0.138241 0 0 0 0 0.258333 0 0 0 0.28 0"/>
<feBlend mode="multiply" in2="BackgroundImageFix" result="effect1_dropShadow_4493_1359"/>
<feBlend mode="normal" in="SourceGraphic" in2="effect1_dropShadow_4493_1359" result="shape"/>
</filter>
</defs>
</svg>
